<svg viewBox="0 0 12 12" fill="none" xmlns="http://www.w3.org/2000/svg">
<path fill-rule="evenodd" clip-rule="evenodd" d="M3.6 12C1.61178 12 0 10.3882 0 8.4V3.6C0 1.61178 1.61178 0 3.6 0H8.4C10.3882 0 12 1.61178 12 3.6V8.4C12 10.3882 10.3882 12 8.4 12H3.6ZM8.4 11H3.6C2.16406 11 1 9.83594 1 8.4V3.6C1 2.16406 2.16406 1 3.6 1H8.4C9.83594 1 11 2.16406 11 3.6V8.4C11 9.83594 9.83594 11 8.4 11Z" fill="currentColor"/>
<path d="M6.5 8.29282L8.47487 6.31794L9.18198 7.02505L7.06066 9.14637C6.47487 9.73216 5.52513 9.73216 4.93934 9.14637L2.81802 7.02505L3.52513 6.31794L5.5 8.29282V2.50001H6.5V8.29282Z" fill="currentColor"/>
</svg>
